<svg xmlns="http://www.w3.org/2000/svg" version="1.1" viewBox="-5.0 -10.0 110.0 135.0">
 <path d="m80.84 65.629-1.1914-10.508 0.65234-4.332-3.5391 3.1914-1.5 11.168 0.48828 1.75 2.6484 3.2734h6.5625l-0.72266-3.8203z"/>
 <path d="m92.922 38.461c-0.23047 0-0.41016 0.19141-0.41016 0.41016 0 0.23047 0.19141 0.41016 0.41016 0.41016s0.41016-0.19141 0.41016-0.41016c0.007813-0.23047-0.18359-0.41016-0.41016-0.41016z"/>
 <path d="m43.391 67.32-2.582-2.8398 5.1523-9.3906-1.4219-0.5-10.117 6.5195-0.96094 3.5391 7.7773 7.1016h6.8633l-1.832-4.4297z"/>
 <path d="m95.191 37.422-2.4609-2.4297-3.1016-1.1602-1.9688-3.1992-3.0703 2.3008-6.6797 1.1797-4.8281-0.80859-5.0195 1.9297-24.988-1.8008-0.14844-0.011719-13.488 3.0117-3.8203 3.8711-7.9609 17.121-7.707 3.7734-5.1797-3.0391-3.7305 0.30078 0.73828 3.8906 8.0312 4.9219 10.691-5.1602v8.8594l2.7891 2.8711h6.7383l-2.3516-4.9688h-2.3203l0.26953-4.5586 18.629-11.93 12.762 4.4805 9.3008-1.0703 0.85938 11.27 2.1602 4.2109h7.0898l-0.96094-4.1602-2.5898-0.75 1.9883-13.359 6.25-5.6211 3.4609-3.3086 5.3711 1.5391 1.4609 1.9688 2.3008-0.35156 3.9219-3.5508zm-68.531 16.688-2.3281 2.2383 3.1016-6.1797zm59.031-20.039 1.5781-1.2617 1.0586 1.6602zm7.2305 5.7109c-0.5 0-0.91016-0.41016-0.91016-0.91016s0.41016-0.91016 0.91016-0.91016 0.91016 0.41016 0.91016 0.91016c-0.003906 0.5-0.40234 0.91016-0.91016 0.91016z"/>
<text x="0.0" y="117.5" font-size="5.0" font-weight="bold" font-family="Arbeit Regular, Helvetica, Arial-Unicode, Arial, Sans-serif" fill="#000000">Created by bis kim</text><text x="0.0" y="122.5" font-size="5.0" font-weight="bold" font-family="Arbeit Regular, Helvetica, Arial-Unicode, Arial, Sans-serif" fill="#000000">from Noun Project</text></svg>